<?xml version="1.0" standalone="no"?>
<!DOCTYPE svg PUBLIC "-//W3C//DTD SVG 20010904//EN"
 "http://www.w3.org/TR/2001/REC-SVG-20010904/DTD/svg10.dtd">
<svg version="1.0" xmlns="http://www.w3.org/2000/svg"
 width="1334.000000pt" height="750.000000pt" viewBox="0 0 1334.000000 750.000000"
 preserveAspectRatio="xMidYMid meet">
<metadata>
Created by potrace 1.16, written by Peter Selinger 2001-2019
</metadata>
<g transform="translate(0.000000,750.000000) scale(0.100000,-0.100000)"
fill="#000000" stroke="none">
<path d="M2466 7478 c-31 -47 -186 -377 -230 -490 -86 -221 -162 -485 -195
-678 -74 -435 -77 -746 -9 -1075 48 -237 156 -544 245 -700 50 -87 153 -238
159 -233 2 2 -16 42 -40 88 -102 196 -177 415 -211 612 -22 123 -44 381 -39
443 24 274 59 491 115 720 45 182 107 381 115 372 2 -2 -9 -66 -25 -143 -86
-408 -105 -929 -46 -1244 40 -216 124 -474 202 -620 91 -171 109 -191 67 -75
-36 97 -73 265 -80 360 l-5 80 45 -109 c25 -59 57 -128 71 -152 15 -25 33 -77
41 -117 20 -96 62 -220 128 -375 29 -70 57 -152 61 -182 10 -77 50 -290 87
-454 l31 -140 -39 -30 c-59 -46 -161 -152 -236 -245 -162 -202 -305 -590 -362
-982 -26 -174 -19 -729 13 -1036 7 -63 5 -93 -5 -123 -13 -37 -25 -80 -73
-262 -11 -40 -27 -116 -36 -168 -10 -52 -26 -133 -37 -180 -11 -47 -21 -93
-23 -104 -3 -10 -11 -26 -19 -35 -21 -24 -47 -108 -39 -127 5 -13 2 -16 -10
-11 -10 4 -17 2 -17 -5 0 -17 -30 12 -31 31 0 10 -2 12 -6 3 -2 -6 -9 -10 -13
-7 -5 3 -7 12 -4 19 3 8 0 17 -5 21 -6 3 -9 11 -5 16 3 6 3 26 0 45 -6 27 -11
34 -31 34 -13 0 -26 -4 -29 -8 -13 -21 -93 4 -100 31 -3 12 -21 32 -41 45 -19
12 -35 29 -35 38 0 10 -6 14 -15 11 -17 -7 -30 9 -15 18 18 11 11 33 -13 39
-30 7 -54 55 -35 67 10 7 10 9 0 9 -7 0 -15 7 -19 16 -3 9 -28 38 -54 64 -27
27 -49 53 -49 57 0 5 -18 26 -40 48 -22 22 -39 50 -40 63 0 15 -6 22 -19 22
-14 0 -18 5 -14 19 4 16 -2 20 -37 26 -39 7 -41 8 -35 35 5 22 2 30 -13 35
-11 3 -23 12 -26 20 -5 13 -11 12 -38 -5 -44 -26 -58 -25 -58 5 0 22 -4 25
-34 25 -19 0 -38 -4 -41 -10 -3 -5 -23 -10 -44 -10 -32 0 -43 6 -63 33 -38 50
-53 80 -40 85 12 4 -22 42 -37 42 -11 0 -71 67 -71 80 0 6 -8 10 -18 10 -11 0
-24 12 -31 26 -8 19 -17 25 -31 21 -11 -3 -18 -2 -15 2 7 13 -15 79 -33 97 -9
10 -15 28 -14 42 3 20 0 23 -16 18 -23 -8 -38 21 -27 54 5 16 2 20 -18 20 -21
0 -25 6 -31 40 -5 31 -11 40 -26 40 -13 0 -24 10 -30 26 -6 15 -38 74 -72 133
-33 58 -62 115 -63 126 -1 11 -3 23 -4 26 0 3 -18 24 -39 47 -54 60 -102 119
-102 125 0 4 7 4 15 1 11 -5 13 -2 9 10 -8 20 -34 21 -34 1 0 -8 -4 -15 -10
-15 -5 0 -10 6 -10 14 0 8 -10 16 -23 20 -30 7 -69 43 -84 79 -9 19 -20 27
-38 27 -14 0 -25 5 -25 10 0 6 5 10 10 10 6 0 10 5 10 11 0 6 -7 8 -17 5 -10
-4 -15 -4 -11 -1 3 4 -5 23 -18 42 -13 20 -24 40 -24 44 0 5 -13 9 -28 9 l-28
0 -14 -150 c-7 -83 -17 -150 -22 -150 -4 0 -8 -436 -8 -970 l0 -970 2363 0
c2263 1 2360 1 2311 18 -52 18 -134 67 -169 100 -11 11 -38 23 -60 26 -70 12
-258 91 -300 126 -8 7 -18 9 -23 7 -12 -8 -26 4 -39 35 -8 19 -17 26 -28 22
-10 -4 -15 0 -15 10 0 14 -6 16 -35 10 -28 -5 -35 -3 -35 10 0 9 -4 16 -8 16
-4 0 -6 16 -4 36 4 33 2 35 -19 32 l-24 -3 4 110 c1 61 4 112 6 115 2 3 6 61
9 130 4 69 9 152 11 185 11 126 35 758 45 1165 13 551 16 576 50 535 33 -40
375 -280 604 -425 74 -47 137 -91 141 -99 3 -7 -1 -93 -10 -190 -27 -324 -36
-630 -25 -878 10 -239 15 -283 32 -283 6 0 8 39 4 107 -4 60 -11 182 -16 273
-10 166 5 562 30 814 6 54 10 107 10 117 0 10 5 19 11 19 25 0 119 -66 125
-87 3 -13 1 -92 -6 -175 -17 -226 -14 -848 5 -1033 36 -356 48 -417 79 -423
21 -4 39 10 87 71 l38 48 5 -33 c12 -77 43 -461 39 -495 0 -7 8 -13 19 -13 17
0 19 5 14 38 -10 57 -36 429 -36 502 0 45 5 73 18 91 55 83 76 109 83 102 4
-4 24 -42 45 -83 20 -41 45 -86 54 -100 9 -14 43 -70 75 -125 33 -55 102 -162
154 -238 53 -76 102 -149 109 -162 l13 -25 2639 0 c1451 0 2641 4 2644 8 3 4
8 172 11 373 3 200 10 452 15 559 5 107 15 368 21 580 6 212 14 388 18 393 4
4 19 -71 34 -165 58 -381 99 -589 185 -938 81 -328 160 -672 178 -772 l6 -38
924 0 924 0 0 288 0 287 -307 230 c-169 127 -344 263 -390 304 -83 75 -172
142 -271 203 -49 30 -614 451 -1082 805 l-185 140 3 694 c1 382 5 736 8 787 4
63 2 92 -5 92 -6 0 -11 -6 -11 -13 0 -8 -21 -21 -47 -30 l-48 -17 43 4 42 4
-1 -56 c0 -32 -3 -51 -6 -44 -7 18 -21 15 -33 -8 -8 -15 -8 -30 0 -55 12 -37
-1 -95 -27 -123 -7 -7 -13 -19 -13 -25 0 -7 -9 -18 -20 -25 -18 -11 -20 -10
-20 8 0 12 -7 20 -16 20 -9 0 -14 6 -12 12 7 21 -14 37 -29 22 -7 -7 -13 -17
-13 -23 0 -6 -6 -11 -14 -11 -10 0 -12 9 -6 40 7 39 7 40 -21 40 -16 0 -29 5
-29 11 0 5 8 9 18 7 11 -2 18 2 18 7 -2 17 -118 5 -133 -13 -11 -15 -12 -15
-13 6 0 13 -6 22 -15 22 -8 0 -15 9 -15 20 0 17 7 20 44 20 56 0 82 25 41 40
-14 5 -34 10 -43 11 -9 1 -2 6 16 11 33 11 43 32 19 41 -7 3 -40 4 -74 3 -104
-2 -60 14 78 29 81 9 267 47 302 62 24 10 37 23 37 35 0 19 -1 19 -26 -1 -35
-28 -65 -35 -298 -71 -238 -36 -325 -54 -426 -85 -204 -63 -395 -110 -552
-135 -89 -14 -405 -48 -518 -55 -52 -3 -252 -19 -445 -35 -192 -16 -402 -32
-465 -35 -140 -8 -645 -50 -830 -70 -163 -17 -201 -18 -180 -5 28 17 2 20
-104 11 -137 -12 -153 -26 -21 -18 55 4 91 3 80 -2 -11 -4 -94 -13 -185 -20
-91 -7 -232 -21 -315 -31 -82 -11 -217 -24 -300 -30 -82 -5 -199 -14 -260 -19
-60 -5 -195 -13 -299 -17 l-189 -7 24 42 c25 45 29 47 139 56 78 6 140 13 595
64 149 16 392 39 540 51 294 22 371 29 695 59 468 44 710 72 710 81 0 4 -10 6
-22 6 -21 -1 -22 2 -19 84 1 47 4 86 6 88 2 2 107 4 233 5 l230 2 -9 -22 c-24
-63 -61 -123 -77 -124 -9 0 -12 -3 -5 -5 6 -3 90 4 186 15 96 12 177 21 181
21 3 0 6 6 6 14 0 23 38 101 58 120 18 15 41 17 253 12 178 -4 211 -3 140 4
-59 6 -100 15 -111 25 -36 32 -123 221 -171 368 -45 139 -78 297 -93 437 -8
74 -44 609 -50 743 l-5 107 38 0 c78 0 222 104 263 190 63 135 63 132 63 232
1 94 2 99 30 129 20 21 23 27 9 19 -11 -7 -30 -27 -42 -45 -19 -27 -22 -40
-16 -86 7 -59 -13 -151 -47 -224 -28 -59 -112 -142 -172 -171 -63 -29 -127
-33 -127 -6 -1 71 -21 541 -26 600 -3 39 -9 70 -14 67 -8 -5 -172 125 -199
158 -15 19 -18 114 -3 129 6 6 41 -13 101 -58 72 -52 94 -73 99 -98 5 -21 9 4
12 79 5 94 11 122 40 195 52 130 73 160 113 160 19 0 56 -11 83 -25 l49 -24
-28 24 c-15 13 -46 29 -69 35 -63 17 -84 1 -132 -102 -23 -48 -44 -87 -47 -88
-3 0 -9 91 -12 203 -6 198 -35 504 -60 642 l-13 70 -542 3 c-298 1 -542 0
-542 -3 0 -3 8 -22 19 -43 23 -46 91 -243 91 -265 0 -28 -14 -19 -32 21 -10
20 -28 55 -41 77 -12 22 -33 63 -45 90 -28 60 -43 87 -61 109 -12 14 -67 16
-525 16 l-511 0 3 -50 c4 -51 0 -56 -38 -50 -8 1 -27 13 -42 28 l-28 26 0 -85
c0 -95 -13 -126 -47 -115 -12 4 -24 14 -28 24 -3 9 -34 63 -68 119 l-61 103
-238 0 -237 0 51 -52 c99 -103 169 -238 123 -238 -7 0 -18 6 -22 14 -11 20
-93 78 -93 66 0 -24 -48 -8 -83 28 -40 41 -46 62 -22 82 11 9 12 17 5 31 -6
10 -11 29 -12 43 l-2 26 -1798 0 -1798 0 -14 -22z m3138 -167 c41 -61 51 -70
58 -56 7 12 17 15 36 10 25 -6 26 -6 9 13 -23 25 -23 82 -1 82 9 0 50 -16 90
-35 40 -19 75 -35 78 -35 4 0 -2 17 -13 39 -21 40 -19 51 9 51 35 0 180 -179
180 -223 0 -15 -5 -18 -22 -13 -52 15 -86 16 -98 1 -7 -8 -23 -15 -35 -15 -25
0 -88 39 -124 77 -30 32 -35 25 -16 -22 18 -42 14 -65 -11 -65 -12 0 -15 -5
-9 -22 17 -58 18 -68 0 -68 -9 0 -29 14 -43 30 -32 36 -40 37 -44 8 -5 -36
-44 -35 -89 2 -41 32 -45 31 -51 -19 -2 -13 -11 -29 -21 -35 -16 -9 -25 -4
-59 34 -23 25 -60 74 -83 110 -80 123 -67 177 25 100 47 -40 51 -41 83 -29 28
10 38 9 65 -5 32 -16 32 -16 32 7 0 13 -7 46 -15 73 -15 51 -12 88 8 82 7 -2
34 -37 61 -77z m-623 -68 c37 -140 48 -250 26 -258 -23 -10 -77 23 -88 53 -22
55 -67 208 -74 250 -10 62 13 54 53 -18 18 -33 35 -60 38 -60 3 0 2 37 -1 83
-10 112 9 92 46 -50z m216 -35 c38 -38 43 -40 43 -20 0 29 28 29 40 0 16 -42
50 -161 50 -179 0 -83 -51 -55 -122 66 -98 166 -103 223 -11 133z m3398 -775
c-4 -21 -9 -46 -11 -55 -5 -17 -224 -138 -251 -138 -12 0 -14 10 -10 51 3 29
9 55 14 60 16 16 229 118 246 119 15 0 17 -6 12 -37z m-4735 -188 c17 -296 34
-432 92 -728 11 -59 18 -110 15 -113 -17 -17 -361 16 -381 36 -19 19 53 406
116 625 40 141 133 383 143 373 2 -1 8 -88 15 -193z m925 -240 c55 -104 183
-307 244 -388 143 -189 413 -474 556 -585 31 -25 27 -35 -22 -48 -13 -3 -23
-10 -23 -15 0 -4 20 -1 44 8 24 9 50 13 59 10 15 -6 15 -11 -3 -53 -11 -26
-19 -49 -17 -51 3 -2 10 10 17 26 24 60 29 59 173 -38 74 -50 147 -96 161
-102 14 -7 26 -16 26 -20 0 -7 -127 -59 -146 -59 -5 0 -32 22 -59 50 -27 27
-51 48 -53 45 -3 -2 12 -27 32 -55 20 -28 34 -55 31 -60 -3 -5 -28 -21 -55
-36 -28 -15 -50 -31 -50 -36 0 -5 26 4 57 21 31 17 62 31 69 31 12 0 40 -38
32 -44 -2 -2 -41 -24 -88 -50 -47 -26 -101 -61 -120 -78 -36 -31 -28 -28 53
21 20 12 37 19 37 14 0 -5 -29 -37 -65 -73 -35 -35 -63 -66 -60 -68 2 -3 34
21 70 53 36 32 65 53 65 47 0 -5 -36 -49 -79 -98 -43 -49 -77 -91 -75 -93 2
-3 14 5 27 16 30 28 197 133 272 171 54 27 123 51 150 52 6 0 11 -47 11 -119
1 -65 5 -128 9 -140 6 -21 8 -21 46 13 45 42 85 55 104 35 24 -25 55 -93 55
-121 0 -37 -13 -42 -103 -41 l-77 2 6 -27 c4 -15 20 -56 36 -92 32 -72 31 -90
-9 -90 -19 0 -24 -3 -16 -11 28 -28 558 -66 595 -43 5 3 4 12 -2 20 -9 10 -3
24 31 64 23 27 40 52 38 54 -2 2 -22 6 -43 9 -37 6 -41 3 -82 -41 l-43 -47
-88 -1 c-85 -2 -205 9 -245 22 -12 3 -31 32 -49 71 -35 79 -35 83 -5 83 45 0
73 17 79 48 4 21 16 34 42 46 20 10 38 16 39 14 1 -1 7 -15 14 -30 17 -40 29
-34 37 18 9 64 14 74 36 74 23 0 35 -22 44 -82 8 -53 25 -62 43 -23 l12 26 37
-20 c21 -10 49 -31 63 -46 37 -40 72 -55 113 -48 33 5 39 11 59 62 19 48 22
75 23 189 0 83 4 131 10 129 6 -2 25 -29 43 -60 48 -80 52 -147 17 -252 -15
-44 -34 -93 -42 -110 -14 -30 -14 -30 19 6 18 19 52 57 76 85 l43 49 -5 -50
c-9 -95 -106 -353 -185 -496 -60 -109 -45 -104 70 20 98 108 159 187 198 261
16 30 37 64 45 75 15 19 15 18 15 -15 0 -19 -6 -135 -14 -258 -16 -263 -19
-272 -93 -272 -26 0 -144 -9 -262 -20 -118 -12 -251 -23 -295 -25 -44 -3 -109
-10 -145 -15 -67 -10 -249 -31 -425 -50 -108 -11 -110 -12 -147 -84 -19 -36
-19 -46 -8 -160 31 -335 93 -873 106 -919 6 -18 -26 -35 -201 -109 -88 -37
-290 -104 -373 -124 -81 -19 -104 -12 -234 68 -57 36 -125 78 -153 95 -27 18
-86 53 -130 79 -142 84 -557 364 -655 443 -199 160 -331 299 -410 431 -44 74
-84 170 -71 170 5 0 29 -9 53 -19 25 -10 102 -31 172 -46 138 -29 273 -32 331
-5 29 13 28 14 -51 20 -81 7 -243 56 -294 90 -14 9 -56 33 -94 54 -121 66
-196 125 -215 170 -18 42 -74 226 -86 284 -8 38 -8 38 74 12 141 -45 347 -70
430 -54 48 10 37 19 -36 30 -134 21 -413 182 -530 305 -29 31 -80 146 -69 157
3 2 19 -6 36 -18 17 -12 34 -20 37 -16 3 3 -9 28 -27 56 -18 28 -31 53 -28 55
2 2 40 -32 83 -76 79 -79 224 -187 290 -215 36 -14 47 -6 21 16 -8 6 -12 19
-9 27 5 13 2 15 -15 11 -40 -11 -247 225 -308 352 -38 80 -28 79 27 -1 116
-168 229 -308 229 -284 0 4 -18 40 -41 79 -48 83 -73 172 -67 237 5 51 45 107
110 155 l33 25 7 -78 c10 -127 62 -236 84 -178 8 21 85 76 97 68 16 -10 47
-87 47 -119 0 -38 -12 -44 -86 -44 -30 0 -54 -2 -54 -5 0 -11 44 -92 96 -177
58 -92 62 -105 39 -114 -56 -22 46 -44 235 -51 105 -4 153 -2 175 7 24 11 27
14 11 18 -19 4 -19 13 0 86 6 25 4 26 -34 26 -37 0 -41 -3 -47 -31 -9 -41 -42
-52 -135 -46 -69 5 -77 8 -101 37 -46 55 -53 74 -38 108 14 32 82 73 125 76
13 0 24 6 24 11 0 6 3 6 8 -1 4 -5 21 -16 39 -23 18 -7 38 -20 44 -28 16 -19
75 -43 107 -43 l25 0 -6 88 c-4 48 -18 129 -33 181 -14 51 -23 95 -20 98 11
12 111 -75 178 -154 39 -46 73 -82 75 -79 5 5 -17 53 -53 116 l-26 45 36 -40
c46 -52 46 -38 -2 33 -58 86 -58 86 -32 72 44 -24 30 0 -25 42 -114 86 -111
83 -96 112 19 34 35 33 82 -5 21 -17 39 -26 39 -21 0 6 -18 25 -41 43 -29 23
-39 37 -35 51 4 17 1 19 -19 14 -15 -4 -52 8 -109 35 -48 22 -92 39 -98 37 -6
-2 11 -13 38 -25 28 -11 70 -33 94 -48 l43 -27 -24 -19 c-13 -10 -30 -19 -36
-19 -7 0 -72 29 -145 64 -154 75 -207 92 -342 109 l-99 12 -34 105 c-59 183
-107 400 -91 415 3 3 62 -6 131 -20 70 -14 160 -25 201 -25 l75 0 23 -62 c12
-34 35 -77 51 -95 27 -31 28 -33 8 -33 -37 0 -23 -18 19 -25 23 -4 60 -21 83
-38 23 -18 65 -48 94 -67 29 -19 57 -45 64 -58 7 -13 19 -20 27 -17 7 3 59
-23 114 -58 l101 -62 53 -110 c57 -116 80 -153 90 -142 3 3 -4 35 -16 71 -31
95 -23 112 23 48 21 -29 41 -52 44 -52 3 0 21 14 41 31 35 31 37 31 109 25 92
-7 219 -39 296 -73 31 -14 60 -24 62 -21 3 3 -6 29 -19 59 -38 84 -66 159 -60
159 4 0 40 -31 80 -70 40 -38 99 -86 131 -107 32 -20 70 -48 86 -62 15 -14 27
-19 27 -13 0 13 -99 181 -150 257 -15 22 -42 69 -60 105 -18 36 -68 121 -110
190 -127 204 -188 315 -282 510 -85 176 -169 376 -184 437 -9 38 -3 30 41 -52z
m-701 -55 c73 -254 172 -504 308 -782 37 -76 65 -138 63 -138 -11 0 -197 134
-243 175 -49 44 -92 116 -92 155 0 13 13 26 38 39 40 21 86 60 79 67 -3 3 -22
-4 -43 -15 -68 -34 -83 -35 -93 -9 -31 84 -79 643 -53 613 5 -6 21 -53 36
-105z m5011 -99 l95 -95 0 -58 c0 -32 -2 -58 -5 -58 -7 0 -177 144 -194 164
-13 16 -32 132 -22 141 12 13 36 -5 126 -94z m-2028 -112 c27 -52 18 -70 -65
-128 -42 -30 -88 -65 -102 -77 -22 -19 -157 -119 -270 -198 -19 -14 -124 -88
-233 -166 -138 -98 -205 -140 -218 -137 -10 3 -17 1 -13 -4 3 -5 22 -8 42 -7
21 0 56 -9 82 -22 24 -12 92 -40 149 -62 58 -22 118 -50 134 -64 15 -13 36
-24 45 -24 11 1 8 6 -10 16 -16 8 -28 18 -28 23 0 14 512 401 530 401 20 0 7
-98 -16 -120 -11 -10 -111 -84 -224 -165 -113 -80 -206 -150 -208 -155 -2 -4
3 -7 10 -7 32 3 100 -16 105 -30 3 -8 -3 -23 -14 -34 -17 -17 -27 -18 -98 -11
-43 5 -127 5 -187 0 l-108 -8 -94 51 c-122 67 -356 237 -356 260 0 5 10 9 23
9 12 0 29 5 37 10 11 7 -3 10 -45 10 -60 0 -61 1 -111 53 -43 45 -85 95 -143
170 -26 33 42 21 95 -18 99 -70 211 -143 265 -174 31 -17 59 -40 62 -50 2 -11
15 -24 28 -31 21 -10 22 -10 7 3 -39 31 -23 50 150 173 140 100 218 157 274
200 67 51 244 180 373 272 55 40 105 70 110 69 6 -2 16 -14 22 -28z m-3647
-365 c0 -20 71 -226 90 -264 10 -19 46 -86 80 -148 33 -62 59 -116 56 -121 -3
-5 -29 -11 -58 -15 -29 -4 -97 -20 -152 -37 -54 -17 -100 -28 -102 -26 -9 9
-4 330 6 412 12 97 36 221 47 238 7 11 33 -19 33 -39z m205 -574 c-3 -5 -10
-10 -15 -10 -20 0 -136 -76 -188 -122 -41 -38 -57 -47 -62 -37 -13 24 -21 93
-12 107 18 27 294 89 277 62z m3467 -155 c-2 -66 -5 -121 -7 -123 -5 -5 -205
170 -205 180 0 13 22 10 89 -13 35 -11 68 -18 74 -16 7 2 -23 14 -65 27 -43
13 -78 25 -78 27 0 3 9 17 19 32 l20 27 78 -11 78 -10 -3 -120z m-4113 -1435
c12 -60 28 -192 36 -292 13 -161 24 -259 66 -576 24 -182 103 -535 209 -929
26 -99 89 -863 71 -863 -6 0 -72 91 -149 207 -46 70 -155 281 -195 378 -30 75
-83 243 -98 313 -6 28 -15 52 -20 52 -14 0 -11 -19 17 -126 77 -300 210 -577
387 -809 60 -78 62 -81 65 -152 2 -40 1 -81 -3 -90 -4 -10 -7 -37 -5 -61 1
-32 -3 -47 -17 -57 -21 -17 -53 -19 -53 -5 0 6 10 10 23 11 17 0 14 3 -13 12
-30 11 -37 10 -47 -3 -10 -13 -16 -11 -44 15 -19 17 -43 40 -54 52 -25 28 -32
29 -38 6 -3 -13 -5 -10 -6 7 -2 23 -31 75 -31 54 0 -5 -29 47 -64 115 -34 69
-68 127 -74 129 -23 7 -12 -49 23 -118 40 -80 44 -110 15 -110 -11 0 -20 -7
-20 -15 0 -27 -51 36 -52 65 -1 24 -6 29 -32 33 -17 2 -32 1 -34 -4 -6 -15
-32 -10 -32 6 0 8 -5 15 -11 15 -6 0 -9 6 -6 13 3 9 -5 13 -30 13 -19 0 -37 5
-41 10 -4 6 -19 14 -34 18 -21 5 -28 12 -28 31 0 14 -3 24 -7 23 -5 0 -15 2
-23 5 -8 3 -24 7 -35 9 -11 2 -24 12 -30 23 -17 34 -57 69 -64 56 -9 -14 -41
22 -41 47 0 14 -2 15 -10 2 -7 -12 -12 -11 -29 9 -22 25 -36 110 -27 162 4 21
3 27 -2 15 -9 -21 -28 133 -37 299 -3 55 -10 159 -15 230 -15 199 -12 564 5
691 24 183 96 468 145 579 61 138 86 188 135 269 93 156 269 346 320 346 8 0
20 -40 34 -110z m176 -840 c29 -158 54 -314 105 -652 25 -166 -5 -89 -69 182
-64 268 -144 778 -140 895 2 45 64 -213 104 -425z m2729 -252 c10 -47 38 -290
33 -294 -9 -9 -177 216 -177 238 0 7 120 78 132 78 4 0 10 -10 12 -22z m-786
-140 c59 -40 105 -58 149 -58 21 0 118 27 215 61 98 33 182 57 188 54 19 -12
10 -22 -27 -33 -101 -30 -446 -355 -628 -589 -26 -35 -50 -63 -53 -63 -10 0
23 674 35 693 5 8 43 -13 121 -65z m658 5 c80 -97 84 -104 95 -180 6 -37 17
-92 25 -122 8 -30 13 -56 11 -57 -3 -4 -112 159 -145 216 -16 28 -72 187 -72
206 0 2 7 4 15 4 8 0 40 -30 71 -67z m-85 -13 c5 -8 22 -46 38 -85 38 -90 81
-164 160 -278 94 -134 113 -175 115 -244 0 -32 -3 -71 -8 -88 -8 -26 -7 -28 6
-17 13 11 17 -1 32 -95 18 -119 19 -143 9 -143 -4 0 -27 21 -52 48 -25 26 -75
68 -111 93 -79 56 -160 127 -160 140 0 5 13 23 29 41 l29 32 66 -13 c37 -7 69
-11 72 -8 10 10 -36 28 -87 34 -50 6 -51 5 -101 -43 -52 -51 -351 -443 -543
-713 -60 -85 -115 -156 -122 -158 -13 -5 -37 94 -53 220 -42 344 -51 586 -24
640 43 84 205 267 387 438 207 193 292 247 318 199z m106 -983 c3 -4 8 -28 10
-54 7 -57 15 -70 54 -78 16 -4 31 -11 34 -16 3 -5 -4 -39 -15 -76 -20 -63 -99
-502 -115 -635 -4 -32 -10 -58 -14 -58 -13 1 -241 326 -241 345 0 3 -13 25
-29 48 -33 49 -123 226 -141 278 -13 35 -13 36 79 166 50 72 96 133 102 135
13 4 267 -47 276 -55z"/>
<path d="M11359 5049 c-1 -101 -2 -227 -4 -279 -8 -364 -12 -1217 -6 -1320 10
-190 27 -115 39 175 8 192 -10 1590 -20 1601 -5 4 -9 -76 -9 -177z"/>
<path d="M11397 3323 c-4 -3 -8 -34 -9 -67 -1 -35 -3 -47 -5 -28 -3 19 -10 32
-19 32 -9 0 -14 -11 -14 -32 -1 -18 -2 -76 -4 -128 -3 -88 4 -120 25 -120 4 0
10 35 12 78 l3 77 0 -87 c-1 -83 0 -88 28 -114 28 -25 30 -26 43 -8 7 10 13
24 13 31 0 7 6 13 13 13 8 0 8 3 -2 9 -9 6 -16 35 -19 85 -4 65 -2 80 14 97
18 20 18 22 1 51 -9 16 -17 37 -17 47 0 20 -53 74 -63 64z"/>
<path d="M11545 2760 c3 -5 45 -34 93 -63 72 -45 705 -449 832 -532 117 -76
861 -545 865 -545 3 0 5 8 5 18 -1 10 -27 33 -68 58 -37 22 -168 104 -292 181
-124 77 -346 216 -495 308 -248 154 -400 249 -482 300 -17 11 -51 31 -74 45
-23 14 -94 58 -158 98 -151 96 -234 144 -226 132z"/>
<path d="M12116 2735 c-12 -9 -43 -15 -80 -15 -34 0 -56 -4 -50 -8 14 -10 26
-42 15 -42 -11 0 25 -76 40 -85 6 -4 13 2 16 14 4 17 8 19 19 10 8 -6 14 -22
14 -36 0 -31 20 -52 44 -43 16 5 14 8 -9 18 -15 7 -25 15 -22 18 3 3 19 -2 36
-11 26 -13 31 -13 31 -1 0 8 -10 17 -22 19 l-23 4 23 2 c19 1 22 7 22 41 0 31
-4 40 -17 40 -14 0 -15 2 -5 9 11 7 11 9 -2 14 -9 4 -16 11 -16 16 0 15 30 42
40 36 5 -3 11 -1 15 5 10 16 -47 11 -69 -5z"/>
<path d="M12430 2431 c0 -10 -7 -24 -16 -32 -13 -10 -17 -10 -25 2 -7 11 -9
11 -9 -4 0 -11 -5 -16 -12 -12 -7 4 -4 -1 6 -9 23 -18 36 -20 36 -6 0 6 5 10
11 10 7 0 9 -10 7 -25 -4 -21 2 -29 38 -50 26 -15 59 -25 86 -26 24 -1 36 -3
26 -6 -14 -4 -13 -7 7 -29 12 -13 27 -24 33 -24 6 0 12 -3 14 -7 4 -10 82 -63
91 -63 4 0 29 -15 55 -33 26 -18 65 -41 87 -52 22 -11 42 -23 43 -28 2 -4 24
-16 48 -27 24 -11 44 -24 44 -28 0 -4 14 -13 30 -21 17 -7 43 -24 59 -36 15
-13 39 -27 54 -30 15 -4 27 -10 27 -14 0 -6 100 -72 158 -105 9 -6 12 49 12
258 0 254 -1 266 -19 266 -10 0 -24 7 -31 15 -9 11 -23 14 -46 9 -28 -5 -33
-3 -36 17 -4 27 -28 38 -28 12 0 -15 -2 -15 -10 -3 -8 12 -10 12 -16 -3 -3 -9
-16 -17 -28 -17 -20 -1 -21 -1 -2 -15 23 -17 21 -20 -21 -28 -20 -4 -34 -2
-37 6 -3 8 -5 6 -5 -3 4 -55 -5 -61 -39 -30 -28 27 -28 32 8 72 17 18 30 38
30 46 0 19 -28 26 -45 12 -12 -10 -18 -10 -30 0 -12 10 -15 10 -15 0 0 -12
-39 -49 -52 -50 -3 0 -8 8 -10 18 -2 9 -8 -14 -12 -53 -6 -51 -11 -64 -17 -50
-4 11 -8 33 -8 49 -1 25 -4 28 -27 22 -15 -4 -33 -14 -41 -21 -14 -14 -33 -20
-33 -10 0 2 5 15 11 29 9 19 9 29 1 39 -8 9 -8 17 -1 24 14 14 0 43 -20 43
-12 0 -13 -2 -3 -9 11 -7 11 -16 -2 -52 -8 -24 -15 -36 -16 -25 0 12 -5 16
-15 12 -8 -3 -22 -9 -31 -12 -10 -5 -17 0 -21 15 -4 17 -13 21 -44 21 -21 0
-41 5 -44 11 -10 14 -57 -31 -51 -48 4 -8 -3 -13 -17 -13 -19 0 -22 6 -25 49
-3 46 -2 48 21 44 14 -3 29 2 36 11 12 14 6 16 -53 16 -58 0 -66 -2 -66 -19z"/>
<path d="M13075 1283 c-39 -4 -148 -34 -158 -43 -5 -4 -1 -14 7 -21 58 -53 88
-60 314 -75 l102 -7 0 77 0 76 -117 -1 c-65 -1 -131 -4 -148 -6z"/>
<path d="M4804 557 c-3 -9 -1 -58 6 -109 13 -102 50 -354 55 -378 2 -8 4 -27
4 -42 1 -23 6 -28 26 -28 30 0 30 -2 6 108 -11 48 -31 168 -46 267 -25 174
-37 217 -51 182z"/>
</g>
</svg>
